<svg xmlns="http://www.w3.org/2000/svg" xmlns:xlink="http://www.w3.org/1999/xlink" width="720" zoomAndPan="magnify" viewBox="0 0 540 540.000001" height="720" preserveAspectRatio="xMidYMid meet" version="1.0"><defs><g/><clipPath id="074fd5a449"><path d="M 0.5 198.703125 L 539.5 198.703125 L 539.5 493.660156 L 0.5 493.660156 Z M 0.5 198.703125 " clip-rule="nonzero"/></clipPath></defs><g clip-path="url(#074fd5a449)"><path fill="#000000" d="M 328.539062 415.929688 L 328.539062 453.410156 L 411.214844 453.410156 C 416.933594 453.410156 421.59375 458.089844 421.59375 463.808594 L 421.59375 483.277344 C 421.59375 489.003906 416.933594 493.660156 411.214844 493.660156 L 134.550781 493.660156 C 128.832031 493.660156 124.171875 489.003906 124.171875 483.277344 L 124.171875 463.808594 C 124.171875 458.089844 128.832031 453.410156 134.550781 453.410156 L 217.230469 453.410156 L 217.230469 415.929688 L 34.300781 415.929688 C 25.320312 415.929688 16.765625 412.355469 10.417969 406.003906 C 4.070312 399.652344 0.5 391.09375 0.5 382.105469 L 0.5 111.207031 C 0.5 102.207031 4.070312 93.644531 10.417969 87.296875 C 16.765625 80.949219 25.320312 77.375 34.300781 77.375 L 513.15625 77.375 C 522.132812 77.375 530.691406 80.949219 537.035156 87.296875 C 543.390625 93.644531 546.953125 102.207031 546.953125 111.207031 L 546.953125 382.105469 C 546.953125 391.09375 543.390625 399.652344 537.035156 406.003906 C 530.691406 412.355469 522.132812 415.929688 513.15625 415.929688 Z M 513.15625 107.769531 L 34.300781 107.769531 C 33.394531 107.769531 32.539062 108.144531 31.898438 108.78125 C 31.257812 109.425781 30.882812 110.285156 30.882812 111.207031 L 30.882812 382.105469 C 30.882812 383.011719 31.257812 383.871094 31.898438 384.507812 C 32.539062 385.15625 33.394531 385.527344 34.300781 385.527344 L 513.15625 385.527344 C 514.058594 385.527344 514.925781 385.15625 515.566406 384.507812 C 516.203125 383.871094 516.582031 383.011719 516.582031 382.105469 L 516.582031 111.207031 C 516.582031 110.285156 516.203125 109.425781 515.566406 108.78125 C 514.925781 108.144531 514.058594 107.769531 513.15625 107.769531 Z M 513.15625 107.769531 " fill-opacity="1" fill-rule="evenodd"/></g><g fill="#000000" fill-opacity="1"><g transform="translate(52.683431, 289.506125)"><g><path d="M 66.75 -109.859375 L 80.265625 -109.859375 C 93.503906 -109.859375 103.273438 -112.066406 109.578125 -116.484375 C 115.890625 -120.898438 119.046875 -127.835938 119.046875 -137.296875 C 119.046875 -146.660156 115.828125 -153.320312 109.390625 -157.28125 C 102.953125 -161.25 92.972656 -163.234375 79.453125 -163.234375 L 66.75 -163.234375 Z M 66.75 -75.8125 L 66.75 0 L 24.859375 0 L 24.859375 -197.5625 L 82.4375 -197.5625 C 109.28125 -197.5625 129.140625 -192.671875 142.015625 -182.890625 C 154.898438 -173.117188 161.34375 -158.28125 161.34375 -138.375 C 161.34375 -126.75 158.144531 -116.410156 151.75 -107.359375 C 145.351562 -98.304688 136.300781 -91.210938 124.59375 -86.078125 C 154.320312 -41.660156 173.691406 -12.96875 182.703125 0 L 136.21875 0 L 89.046875 -75.8125 Z M 66.75 -75.8125 "/></g></g></g><g fill="#000000" fill-opacity="1"><g transform="translate(235.376837, 289.506125)"><g><path d="M 101.078125 0 L 59.1875 0 L 59.1875 -162.703125 L 5.546875 -162.703125 L 5.546875 -197.5625 L 154.71875 -197.5625 L 154.71875 -162.703125 L 101.078125 -162.703125 Z M 101.078125 0 "/></g></g></g><g fill="#000000" fill-opacity="1"><g transform="translate(395.638953, 289.506125)"><g><path d="M 24.859375 0 L 24.859375 -197.5625 L 66.75 -197.5625 L 66.75 0 Z M 24.859375 0 "/></g></g></g></svg>